<svg width="26" height="27" viewBox="0 0 26 27" fill="none" xmlns="http://www.w3.org/2000/svg">
<path d="M8.8493 2.52C7.2413 3.192 5.9933 4.2 5.1053 5.544C4.2413 6.888 3.8093 8.508 3.8093 10.404C3.8093 11.292 3.8933 11.916 4.0613 12.276C4.2293 12.612 4.3133 12.804 4.3133 12.852C3.0173 12.852 2.0453 12.588 1.3973 12.06C0.773297 11.508 0.461297 10.608 0.461297 9.36C0.461297 7.824 1.0853 6.336 2.3333 4.896C3.6053 3.432 5.2253 2.256 7.1933 1.368C9.1613 0.455998 11.1293 -2.14577e-06 13.0973 -2.14577e-06C13.4333 -2.14577e-06 13.9133 0.0239983 14.5373 0.0719991L12.2333 10.8H17.5253L19.8293 0.0719991H25.0133L19.2893 27H14.1053L16.9853 13.464H11.6933L8.8133 27H3.6293L8.8493 2.52Z" fill="#CB31F1"/>
</svg>
