<svg width="233" height="33" viewBox="0 0 233 33" fill="none" xmlns="http://www.w3.org/2000/svg">
<path d="M9.12078 3.52C7.51278 4.192 6.26478 5.2 5.37678 6.544C4.51278 7.888 4.08078 9.508 4.08078 11.404C4.08078 12.292 4.16478 12.916 4.33278 13.276C4.50078 13.612 4.58478 13.804 4.58478 13.852C3.28878 13.852 2.31678 13.588 1.66878 13.06C1.04478 12.508 0.732781 11.608 0.732781 10.36C0.732781 8.824 1.35678 7.336 2.60478 5.896C3.87678 4.432 5.49678 3.256 7.46478 2.368C9.43278 1.456 11.4008 0.999998 13.3688 0.999998C13.7048 0.999998 14.1848 1.024 14.8088 1.072L12.5048 11.8H17.7968L20.1008 1.072H25.2848L19.5608 28H14.3768L17.2568 14.464H11.9648L9.08478 28H3.90078L9.12078 3.52ZM31.1182 28.648C28.9342 28.648 27.2782 28.048 26.1502 26.848C25.0462 25.648 24.4942 24.136 24.4942 22.312C24.4942 21.016 24.7582 19.72 25.2862 18.424C25.8382 17.104 26.6182 15.952 27.6262 14.968C28.6342 13.984 29.8102 13.324 31.1542 12.988C30.4102 12.46 29.8582 11.824 29.4982 11.08C29.1382 10.312 28.9582 9.508 28.9582 8.668C28.9582 7.42 29.2942 6.196 29.9662 4.996C30.6622 3.796 31.6102 2.824 32.8102 2.08C34.0342 1.312 35.3782 0.927999 36.8422 0.927999C38.3542 0.927999 39.5902 1.324 40.5502 2.116C41.5102 2.908 41.9902 4.012 41.9902 5.428C41.9902 6.484 41.7262 7.372 41.1982 8.092C40.6702 8.812 40.0462 9.172 39.3262 9.172C38.6782 9.172 38.1142 8.848 37.6342 8.2C38.0662 8.056 38.4382 7.66 38.7502 7.012C39.0622 6.364 39.2182 5.716 39.2182 5.068C39.2182 4.372 39.0262 3.868 38.6422 3.556C38.2582 3.22 37.7902 3.052 37.2382 3.052C36.5422 3.052 35.9062 3.304 35.3302 3.808C34.7782 4.288 34.3462 4.924 34.0342 5.716C33.7222 6.484 33.5662 7.288 33.5662 8.128C33.5662 9.28 33.8662 10.3 34.4662 11.188C35.0662 12.052 35.9782 12.64 37.2022 12.952C35.9782 13.216 34.8742 13.816 33.8902 14.752C32.9062 15.688 32.1382 16.78 31.5862 18.028C31.0342 19.252 30.7582 20.428 30.7582 21.556C30.7582 22.636 31.0342 23.512 31.5862 24.184C32.1622 24.856 33.0262 25.192 34.1782 25.192C35.3782 25.192 36.6262 24.868 37.9222 24.22C39.2422 23.548 40.2142 22.648 40.8382 21.52L41.6662 21.88C40.7302 23.944 39.2902 25.588 37.3462 26.812C35.4022 28.036 33.3262 28.648 31.1182 28.648ZM46.6069 28.576C44.5909 28.576 42.9829 28.192 41.7829 27.424C40.6069 26.632 40.0189 25.48 40.0189 23.968C40.0189 22.912 40.2949 22.072 40.8469 21.448C41.4229 20.8 42.1669 20.476 43.0789 20.476C43.8949 20.476 44.5189 20.788 44.9509 21.412C44.0629 21.94 43.6189 22.804 43.6189 24.004C43.6189 24.7 43.8589 25.288 44.3389 25.768C44.8429 26.224 45.5509 26.452 46.4629 26.452C47.5189 26.452 48.4309 26.092 49.1989 25.372C49.9909 24.652 50.5789 23.728 50.9629 22.6C51.3709 21.448 51.5749 20.236 51.5749 18.964C51.5749 17.38 51.2269 16.24 50.5309 15.544C49.8349 14.824 48.8029 14.464 47.4349 14.464H45.9229L46.4989 11.8H47.7949C48.8269 11.8 49.7149 11.5 50.4589 10.9C51.2269 10.3 51.8029 9.568 52.1869 8.704C52.5949 7.816 52.7989 6.988 52.7989 6.22C52.7989 5.332 52.5589 4.648 52.0789 4.168C51.5989 3.664 50.9029 3.412 49.9909 3.412C47.7349 3.412 45.8989 4.792 44.4829 7.552L43.6549 7.192C44.1589 5.176 45.1549 3.652 46.6429 2.62C48.1549 1.564 49.9429 1.036 52.0069 1.036C54.0229 1.036 55.5589 1.528 56.6149 2.512C57.6709 3.496 58.1989 4.804 58.1989 6.436C58.1989 7.996 57.7189 9.34 56.7589 10.468C55.8229 11.572 54.5029 12.412 52.7989 12.988C55.8949 13.876 57.4429 15.904 57.4429 19.072C57.4429 20.776 56.9989 22.36 56.1109 23.824C55.2469 25.264 53.9869 26.416 52.3309 27.28C50.6989 28.144 48.7909 28.576 46.6069 28.576ZM66.4378 32.104C65.5498 32.104 64.7698 32.032 64.0978 31.888C63.4258 31.744 62.8378 31.396 62.3338 30.844C61.8538 30.292 61.6138 29.44 61.6138 28.288C61.6138 26.68 62.0938 24.52 63.0538 21.808C64.0378 19.096 65.3218 16.372 66.9058 13.636C65.7058 13.708 64.7578 13.888 64.0618 14.176C63.3658 14.464 62.9098 14.908 62.6938 15.508C62.7898 15.508 62.8858 15.628 62.9818 15.868C63.1018 16.108 63.1618 16.36 63.1618 16.624C63.1618 17.056 62.9698 17.404 62.5858 17.668C62.2018 17.908 61.7218 18.028 61.1458 18.028C60.4738 18.028 59.9338 17.848 59.5258 17.488C59.1178 17.128 58.9138 16.612 58.9138 15.94C58.9138 15.124 59.2258 14.38 59.8498 13.708C60.4978 13.036 61.3858 12.508 62.5138 12.124C63.6418 11.716 64.8898 11.512 66.2578 11.512C66.7618 11.512 67.3858 11.548 68.1298 11.62C70.0978 8.5 72.1738 5.956 74.3578 3.988C76.5658 1.996 78.6658 0.999998 80.6578 0.999998C81.8098 0.999998 82.7578 1.168 83.5018 1.504L77.8498 28H72.6658L75.4378 14.932C74.5498 14.524 73.7338 14.224 72.9898 14.032C72.2458 13.84 71.4538 13.708 70.6138 13.636C69.2458 16.588 68.1178 19.612 67.2298 22.708C66.3658 25.78 65.9338 28.24 65.9338 30.088C65.9338 31 66.1018 31.672 66.4378 32.104ZM77.8498 3.556C76.8178 4.108 75.7378 5.14 74.6098 6.652C73.5058 8.14 72.4258 9.952 71.3698 12.088C73.0978 12.424 74.5618 12.844 75.7618 13.348L77.8498 3.556ZM97.6141 28.612C96.4381 28.612 95.5261 28.336 94.8781 27.784C94.2541 27.232 93.9421 26.512 93.9421 25.624C93.9421 25.096 94.0741 24.508 94.3381 23.86C95.0101 24.724 95.8141 25.156 96.7501 25.156C97.9501 25.156 98.8381 24.52 99.4141 23.248C100.014 21.952 100.314 20.488 100.314 18.856C100.314 15.904 99.1741 14.428 96.8941 14.428C96.2461 14.428 95.6701 14.548 95.1661 14.788L92.3221 28H87.1381L92.3221 3.952C90.8101 4 89.6461 4.576 88.8301 5.68C88.0381 6.784 87.6421 8.692 87.6421 11.404C87.6421 12.292 87.7261 12.916 87.8941 13.276C88.0621 13.612 88.1461 13.804 88.1461 13.852C86.8501 13.852 85.8781 13.588 85.2301 13.06C84.6061 12.508 84.2941 11.608 84.2941 10.36C84.2941 8.656 84.7141 7.108 85.5541 5.716C86.3941 4.3 87.7261 3.16 89.5501 2.296C91.3981 1.432 93.7381 0.999998 96.5701 0.999998C97.1221 0.999998 97.9741 1.06 99.1261 1.18C101.31 1.348 102.81 1.432 103.626 1.432C104.898 1.432 105.978 1.288 106.866 0.999998C106.842 1.12 106.758 1.6 106.614 2.44C106.47 3.28 106.122 3.976 105.57 4.528C105.042 5.056 104.334 5.32 103.446 5.32C101.694 5.32 99.6661 5.08 97.3621 4.6L95.5621 12.952C96.9781 12.52 98.2021 12.304 99.2341 12.304C101.25 12.304 102.762 12.916 103.77 14.14C104.802 15.34 105.318 16.948 105.318 18.964C105.318 20.284 105.03 21.7 104.454 23.212C103.902 24.7 103.05 25.972 101.898 27.028C100.746 28.084 99.3181 28.612 97.6141 28.612ZM116.529 28.18C115.497 28.18 114.705 27.94 114.153 27.46C113.625 26.956 113.361 26.32 113.361 25.552C113.361 24.76 113.577 24.136 114.009 23.68C114.441 23.224 115.053 22.996 115.845 22.996C116.469 22.996 116.973 23.188 117.357 23.572C117.741 23.932 117.981 24.448 118.077 25.12C118.845 24.832 119.565 23.944 120.237 22.456L115.089 3.412C113.385 4.06 112.065 5.068 111.129 6.436C110.193 7.78 109.725 9.436 109.725 11.404C109.725 12.292 109.809 12.916 109.977 13.276C110.145 13.612 110.229 13.804 110.229 13.852C108.933 13.852 107.961 13.588 107.313 13.06C106.689 12.508 106.377 11.608 106.377 10.36C106.377 8.824 107.001 7.336 108.249 5.896C109.521 4.432 111.141 3.256 113.109 2.368C115.077 1.456 117.045 0.999998 119.013 0.999998C119.349 0.999998 119.829 1.024 120.453 1.072L123.585 14.572L129.273 1.18H131.649L122.649 22.456C121.953 24.064 121.137 25.42 120.201 26.524C119.289 27.628 118.065 28.18 116.529 28.18ZM132.461 28.972C131.333 28.972 130.337 28.612 129.473 27.892C128.633 27.148 128.213 26.212 128.213 25.084C128.213 23.692 128.669 22.564 129.581 21.7C130.493 20.836 131.597 20.404 132.893 20.404C133.349 20.404 133.793 20.5 134.225 20.692L134.369 19.972L137.609 5.104L142.937 4.384L139.013 22.852C138.869 23.5 138.713 24.064 138.545 24.544C139.145 25.048 139.853 25.3 140.669 25.3C142.037 25.3 143.237 24.508 144.269 22.924C145.325 21.34 146.141 19.324 146.717 16.876C147.293 14.428 147.581 11.956 147.581 9.46C147.581 7.108 147.113 5.392 146.177 4.312C145.265 3.208 143.981 2.656 142.325 2.656C140.525 2.656 138.905 3.016 137.465 3.736C136.049 4.432 134.933 5.44 134.117 6.76C133.301 8.08 132.893 9.628 132.893 11.404C132.893 12.292 132.977 12.916 133.145 13.276C133.313 13.612 133.397 13.804 133.397 13.852C132.149 13.852 131.189 13.588 130.517 13.06C129.869 12.532 129.545 11.68 129.545 10.504C129.545 8.872 130.157 7.324 131.381 5.86C132.605 4.396 134.237 3.22 136.277 2.332C138.341 1.444 140.561 0.999998 142.937 0.999998C146.225 0.999998 148.649 1.972 150.209 3.916C151.769 5.86 152.549 8.344 152.549 11.368C152.549 14.104 152.081 16.804 151.145 19.468C150.233 22.108 149.009 24.268 147.473 25.948C145.937 27.628 144.305 28.468 142.577 28.468C140.729 28.468 139.109 27.712 137.717 26.2C137.045 27.208 136.253 27.916 135.341 28.324C134.429 28.756 133.469 28.972 132.461 28.972ZM131.633 25.768C132.065 25.768 132.473 25.552 132.857 25.12C133.265 24.664 133.565 23.944 133.757 22.96L133.937 22.06C133.553 21.82 133.193 21.7 132.857 21.7C132.185 21.7 131.573 21.988 131.021 22.564C130.469 23.116 130.193 23.788 130.193 24.58C130.193 24.94 130.325 25.228 130.589 25.444C130.877 25.66 131.225 25.768 131.633 25.768ZM167.271 28.612C166.095 28.612 165.183 28.336 164.535 27.784C163.911 27.232 163.599 26.512 163.599 25.624C163.599 25.096 163.731 24.508 163.995 23.86C164.667 24.724 165.471 25.156 166.407 25.156C167.607 25.156 168.495 24.52 169.071 23.248C169.671 21.952 169.971 20.488 169.971 18.856C169.971 15.904 168.831 14.428 166.551 14.428C165.903 14.428 165.315 14.56 164.787 14.824L161.979 28H156.795L162.015 3.52C160.407 4.192 159.159 5.2 158.271 6.544C157.407 7.888 156.975 9.508 156.975 11.404C156.975 12.292 157.059 12.916 157.227 13.276C157.395 13.612 157.479 13.804 157.479 13.852C156.183 13.852 155.211 13.588 154.563 13.06C153.939 12.508 153.627 11.608 153.627 10.36C153.627 8.824 154.251 7.336 155.499 5.896C156.771 4.432 158.391 3.256 160.359 2.368C162.327 1.456 164.295 0.999998 166.263 0.999998C166.599 0.999998 167.079 1.024 167.703 1.072L165.183 12.952C166.575 12.52 167.811 12.304 168.891 12.304C170.907 12.304 172.419 12.916 173.427 14.14C174.459 15.34 174.975 16.948 174.975 18.964C174.975 20.284 174.687 21.7 174.111 23.212C173.559 24.7 172.707 25.972 171.555 27.028C170.403 28.084 168.975 28.612 167.271 28.612ZM177.555 17.164H184.755L184.143 20.008H176.907L177.555 17.164ZM202.576 28.612C200.704 28.612 199.768 27.808 199.768 26.2C199.768 25.672 199.84 25.072 199.984 24.4C200.152 23.704 200.38 22.816 200.668 21.736C201.004 20.608 201.256 19.648 201.424 18.856C201.592 18.064 201.676 17.356 201.676 16.732C201.676 15.1 200.956 14.284 199.516 14.284C199.132 14.284 198.736 14.332 198.328 14.428L195.448 28H190.264L195.484 3.52C193.876 4.192 192.628 5.2 191.74 6.544C190.876 7.888 190.444 9.508 190.444 11.404C190.444 12.292 190.528 12.916 190.696 13.276C190.864 13.612 190.948 13.804 190.948 13.852C189.652 13.852 188.68 13.588 188.032 13.06C187.408 12.508 187.096 11.608 187.096 10.36C187.096 8.824 187.72 7.336 188.968 5.896C190.24 4.432 191.86 3.256 193.828 2.368C195.796 1.456 197.764 0.999998 199.732 0.999998C200.068 0.999998 200.548 1.024 201.172 1.072L198.868 11.836C199.348 10.42 200.008 8.98 200.848 7.516C201.712 6.052 202.492 4.924 203.188 4.132C204.892 2.044 206.656 0.999998 208.48 0.999998C209.248 0.999998 209.884 1.216 210.388 1.648C210.916 2.056 211.18 2.644 211.18 3.412C211.18 4.276 210.952 4.912 210.496 5.32C210.04 5.728 209.488 5.932 208.84 5.932C207.808 5.932 207.1 5.452 206.716 4.492C205.492 5.236 204.376 6.292 203.368 7.66C202.384 9.028 201.436 10.708 200.524 12.7C200.908 12.676 201.412 12.664 202.036 12.664C203.668 12.664 204.82 13.012 205.492 13.708C206.164 14.38 206.5 15.316 206.5 16.516C206.5 17.212 206.416 17.956 206.248 18.748C206.08 19.516 205.84 20.476 205.528 21.628C205.336 22.372 205.156 23.104 204.988 23.824C204.82 24.544 204.736 25.144 204.736 25.624C204.736 26.176 204.856 26.668 205.096 27.1C205.36 27.532 205.708 27.832 206.14 28C204.676 28.408 203.488 28.612 202.576 28.612ZM215.5 32.104C214.612 32.104 213.832 32.032 213.16 31.888C212.488 31.744 211.9 31.396 211.396 30.844C210.916 30.292 210.676 29.44 210.676 28.288C210.676 26.68 211.156 24.52 212.116 21.808C213.1 19.096 214.384 16.372 215.968 13.636C214.768 13.708 213.82 13.888 213.124 14.176C212.428 14.464 211.972 14.908 211.756 15.508C211.852 15.508 211.948 15.628 212.044 15.868C212.164 16.108 212.224 16.36 212.224 16.624C212.224 17.056 212.032 17.404 211.648 17.668C211.264 17.908 210.784 18.028 210.208 18.028C209.536 18.028 208.996 17.848 208.588 17.488C208.18 17.128 207.976 16.612 207.976 15.94C207.976 15.124 208.288 14.38 208.912 13.708C209.56 13.036 210.448 12.508 211.576 12.124C212.704 11.716 213.952 11.512 215.32 11.512C215.824 11.512 216.448 11.548 217.192 11.62C219.16 8.5 221.236 5.956 223.42 3.988C225.628 1.996 227.728 0.999998 229.72 0.999998C230.872 0.999998 231.82 1.168 232.564 1.504L226.912 28H221.728L224.5 14.932C223.612 14.524 222.796 14.224 222.052 14.032C221.308 13.84 220.516 13.708 219.676 13.636C218.308 16.588 217.18 19.612 216.292 22.708C215.428 25.78 214.996 28.24 214.996 30.088C214.996 31 215.164 31.672 215.5 32.104ZM226.912 3.556C225.88 4.108 224.8 5.14 223.672 6.652C222.568 8.14 221.488 9.952 220.432 12.088C222.16 12.424 223.624 12.844 224.824 13.348L226.912 3.556Z" fill="#CB31F1"/>
</svg>
